[img]http://i806.photobucket.com/albums/yy345/binhpcworld/PTU/d8g3zev3.jpg[/img]

[b][code]


Genre: Comedy | Drama | Thriller
 Language:English | Mandarin
 IMDb:http://www.imdb.com/title/tt1032763/
 Source:HDTV 720p Thanks!
 SUBTITLES:Chinese
 Encoder:Tony

 Format : AVI
 Format/Info : Audio Video Interleave
 File size : 950 MiB
 Duration : 1h 37mn
 Overall bit rate : 1 369 Kbps

 Video
 ID : 0
 Format : MPEG-4 Visual
 Format profile : Advanced Simple@L5
 Format settings, BVOP : 1
 Format settings, QPel : No
 Format settings, GMC : No warppoints
 Format settings, Matrix : Default (H.263)
 Codec ID : XVID
 Codec ID/Hint : XviD
 Duration : 1h 37mn
 Bit rate : 1 135 Kbps
 Width : 640 pixels
 Height : 272 pixels
 Display aspect ratio : 2.35:1
 Frame rate : 25.000 fps
 Color space : YUV
 Chroma subsampling : 4:2:0
 Bit depth : 8 bits
 Scan type : Progressive
 Compression mode : Lossy
 Bits/(Pixel*Frame) : 0.261
 Stream size : 787 MiB (83%)
 Writing library : XviD 1.2.1 (UTC 2008-12-04)

 Audio
 ID : 1
 Format : AC-3
 Format/Info : Audio Coding 3
 Mode extension : CM (complete main)
 Format settings, Endianness : Big
 Codec ID : 2000
 Duration : 1h 37mn
 Bit rate mode : Constant
 Bit rate : 224 Kbps
 Channel(s) : 2 channels
 Channel positions : Front: L R
 Sampling rate : 48.0 KHz
 Bit depth : 16 bits
 Compression mode : Lossy
 Stream size : 155 MiB (16%)
 Alignment : Aligned on interleaves
 Interleave, duration : 40 ms (1.00 video frame)
 Interleave, preload duration : 512 ms


 Plot:
 A young man with problems at home and work befriends his odd neighbor.

[/code][/b]

[img]http://img163.imageshack.us/img163/867/vlcsnap2012060422h06m20.png[/img]
[img]http://img259.imageshack.us/img259/1057/vlcsnap2012060422h05m59.png[/img]
[img]http://img806.imageshack.us/img806/2172/vlcsnap2012060422h08m08.png[/img]





